<svg width="1000" height="1000" viewBox="0 0 1000 1000" fill="none" xmlns="http://www.w3.org/2000/svg">
<circle cx="340.88" cy="671.121" r="140" stroke="#C7C7CC" stroke-width="20"/>
<path d="M277.24 734.76C263.801 721.321 254.961 703.972 251.988 685.2C249.015 666.428 252.061 647.197 260.689 630.262" stroke="#C7C7CC" stroke-width="20" stroke-linecap="round"/>
<path d="M751.002 458.988L786.358 423.632" stroke="#C7C7CC" stroke-width="20" stroke-linecap="round"/>
<path d="M729.789 494.343C733.694 490.438 733.694 484.106 729.789 480.201C725.884 476.296 719.552 476.296 715.647 480.201L729.789 494.343ZM446.946 777.186L729.789 494.343L715.647 480.201L432.804 763.044L446.946 777.186Z" fill="#C7C7CC"/>
<path d="M517.657 593.338L786.357 324.638" stroke="#C7C7CC" stroke-width="20" stroke-linecap="round"/>
<circle cx="518.456" cy="593.456" r="18" transform="rotate(45 518.456 593.456)" fill="#D9D9D9"/>
<path d="M751.002 260.998L786.358 225.642" stroke="#C7C7CC" stroke-width="20" stroke-linecap="round"/>
<path d="M729.789 296.353C733.694 292.448 733.694 286.116 729.789 282.211C725.884 278.306 719.552 278.306 715.647 282.211L729.789 296.353ZM446.946 579.196L729.789 296.353L715.647 282.211L432.804 565.054L446.946 579.196Z" fill="#C7C7CC"/>
<path d="M418.662 494.343L687.362 225.642" stroke="#C7C7CC" stroke-width="20" stroke-linecap="round"/>
<circle cx="419.456" cy="494.456" r="18" transform="rotate(45 419.456 494.456)" fill="#D9D9D9"/>
<path d="M553.012 260.998L588.368 225.642" stroke="#C7C7CC" stroke-width="20" stroke-linecap="round"/>
<path d="M531.092 297.06C534.997 293.155 534.997 286.823 531.092 282.918C527.187 279.013 520.855 279.013 516.95 282.918L531.092 297.06ZM248.249 579.903L531.092 297.06L516.95 282.918L234.107 565.761L248.249 579.903Z" fill="#C7C7CC"/>
</svg>
